<mxfile host="65bd71144e">
    <diagram id="xxtGg2wU7yqez92tXx-T" name="Sistema de Gestão de Eventos">
        <mxGraphModel dx="2043" dy="779" grid="1" gridSize="10" guides="1" tooltips="1" connect="1" arrows="1" fold="1" page="1" pageScale="1" pageWidth="827" pageHeight="1169" math="0" shadow="0">
            <root>
                <mxCell id="0"/>
                <mxCell id="1" parent="0"/>
                <mxCell id="5" value="" style="html=1;endArrow=none;endFill=0;entryX=0;entryY=0.5;entryDx=0;entryDy=0;" parent="1" source="kfTBa1QCEg8ZJyx0yCpS-81" target="6" edge="1">
                    <mxGeometry relative="1" as="geometry">
                        <mxPoint x="5" y="600" as="targetPoint"/>
                    </mxGeometry>
                </mxCell>
                <mxCell id="20" style="edgeStyle=none;html=1;exitX=0;exitY=0;exitDx=0;exitDy=0;fontColor=#000000;endArrow=none;endFill=0;entryX=0.5;entryY=1;entryDx=0;entryDy=0;" parent="1" source="2" target="21" edge="1">
                    <mxGeometry relative="1" as="geometry">
                        <mxPoint x="-305" y="480" as="targetPoint"/>
                    </mxGeometry>
                </mxCell>
                <mxCell id="24" style="edgeStyle=none;html=1;exitX=0.5;exitY=0;exitDx=0;exitDy=0;fontColor=#000000;endArrow=none;endFill=0;" parent="1" source="2" target="25" edge="1">
                    <mxGeometry relative="1" as="geometry">
                        <mxPoint x="-265" y="385" as="targetPoint"/>
                        <mxPoint x="-160" y="585" as="sourcePoint"/>
                    </mxGeometry>
                </mxCell>
                <mxCell id="YFclPP9cMdC0-PAfr8tu-66" style="edgeStyle=none;shape=connector;rounded=1;html=1;exitX=0;exitY=0.5;exitDx=0;exitDy=0;labelBackgroundColor=default;fontFamily=Helvetica;fontSize=11;fontColor=#000000;endArrow=none;endFill=0;" parent="1" source="2" target="YFclPP9cMdC0-PAfr8tu-67" edge="1">
                    <mxGeometry relative="1" as="geometry">
                        <mxPoint x="-395" y="599.6666666666665" as="targetPoint"/>
                    </mxGeometry>
                </mxCell>
                <mxCell id="67" style="edgeStyle=none;html=1;exitX=0.75;exitY=0;exitDx=0;exitDy=0;fontColor=#000000;endArrow=none;endFill=0;" parent="1" source="2" target="68" edge="1">
                    <mxGeometry relative="1" as="geometry">
                        <mxPoint x="-155" y="310" as="targetPoint"/>
                    </mxGeometry>
                </mxCell>
                <mxCell id="69" style="edgeStyle=none;html=1;exitX=0.25;exitY=1;exitDx=0;exitDy=0;fontColor=#000000;endArrow=none;endFill=0;" parent="1" source="2" target="70" edge="1">
                    <mxGeometry relative="1" as="geometry">
                        <mxPoint x="-365" y="930" as="targetPoint"/>
                    </mxGeometry>
                </mxCell>
                <mxCell id="2" value="Participante" style="rounded=0;whiteSpace=wrap;html=1;" parent="1" vertex="1">
                    <mxGeometry x="-360" y="570" width="120" height="60" as="geometry"/>
                </mxCell>
                <mxCell id="12" value="" style="edgeStyle=none;html=1;fontColor=#000000;endArrow=none;endFill=0;startArrow=none;" parent="1" source="kfTBa1QCEg8ZJyx0yCpS-90" target="11" edge="1">
                    <mxGeometry relative="1" as="geometry"/>
                </mxCell>
                <mxCell id="35" style="edgeStyle=none;html=1;exitX=0;exitY=0;exitDx=0;exitDy=0;fontColor=#000000;endArrow=none;endFill=0;" parent="1" source="6" target="36" edge="1">
                    <mxGeometry relative="1" as="geometry">
                        <mxPoint x="85" y="500" as="targetPoint"/>
                    </mxGeometry>
                </mxCell>
                <mxCell id="41" style="edgeStyle=none;html=1;fontColor=#000000;endArrow=none;endFill=0;" parent="1" source="6" target="42" edge="1">
                    <mxGeometry relative="1" as="geometry">
                        <mxPoint x="275" y="740" as="targetPoint"/>
                    </mxGeometry>
                </mxCell>
                <mxCell id="6" value="" style="rhombus;whiteSpace=wrap;html=1;rounded=0;" parent="1" vertex="1">
                    <mxGeometry x="105" y="540" width="120" height="120" as="geometry"/>
                </mxCell>
                <mxCell id="10" value="Inscrição" style="text;html=1;align=center;verticalAlign=middle;whiteSpace=wrap;rounded=0;" parent="1" vertex="1">
                    <mxGeometry x="135" y="585" width="60" height="30" as="geometry"/>
                </mxCell>
                <mxCell id="55" style="edgeStyle=none;html=1;exitX=0.25;exitY=0;exitDx=0;exitDy=0;fontColor=#000000;endArrow=none;endFill=0;" parent="1" source="11" target="56" edge="1">
                    <mxGeometry relative="1" as="geometry">
                        <mxPoint x="640" y="440" as="targetPoint"/>
                    </mxGeometry>
                </mxCell>
                <mxCell id="64" style="edgeStyle=none;html=1;exitX=0.75;exitY=0;exitDx=0;exitDy=0;fontColor=#000000;endArrow=none;endFill=0;" parent="1" source="11" target="65" edge="1">
                    <mxGeometry relative="1" as="geometry">
                        <mxPoint x="790" y="360" as="targetPoint"/>
                    </mxGeometry>
                </mxCell>
                <mxCell id="zBVtbjsKA-3f5Eu_UvvL-68" style="edgeStyle=none;shape=connector;rounded=1;html=1;exitX=1;exitY=1;exitDx=0;exitDy=0;labelBackgroundColor=default;fontFamily=Helvetica;fontSize=11;fontColor=#FFFFFF;endArrow=none;endFill=0;" parent="1" source="11" target="zBVtbjsKA-3f5Eu_UvvL-69" edge="1">
                    <mxGeometry relative="1" as="geometry">
                        <mxPoint x="889.9999999999995" y="799.9999999999998" as="targetPoint"/>
                    </mxGeometry>
                </mxCell>
                <mxCell id="71" style="edgeStyle=none;html=1;exitX=0.5;exitY=1;exitDx=0;exitDy=0;fontColor=#000000;endArrow=none;endFill=0;" parent="1" source="11" target="72" edge="1">
                    <mxGeometry relative="1" as="geometry">
                        <mxPoint x="650" y="970" as="targetPoint"/>
                    </mxGeometry>
                </mxCell>
                <mxCell id="76" style="edgeStyle=none;html=1;exitX=0.25;exitY=1;exitDx=0;exitDy=0;endArrow=none;endFill=0;" parent="1" source="11" target="77" edge="1">
                    <mxGeometry relative="1" as="geometry">
                        <mxPoint x="520" y="790" as="targetPoint"/>
                    </mxGeometry>
                </mxCell>
                <mxCell id="11" value="" style="rounded=0;whiteSpace=wrap;html=1;" parent="1" vertex="1">
                    <mxGeometry x="590" y="570" width="120" height="60" as="geometry"/>
                </mxCell>
                <mxCell id="13" value="Evento" style="text;html=1;align=center;verticalAlign=middle;whiteSpace=wrap;rounded=0;" parent="1" vertex="1">
                    <mxGeometry x="620" y="585" width="60" height="30" as="geometry"/>
                </mxCell>
                <mxCell id="17" value="" style="edgeStyle=none;html=1;fontColor=#000000;endArrow=none;endFill=0;entryX=0;entryY=0.5;entryDx=0;entryDy=0;" parent="1" source="kfTBa1QCEg8ZJyx0yCpS-88" target="11" edge="1">
                    <mxGeometry relative="1" as="geometry">
                        <mxPoint x="310" y="600" as="sourcePoint"/>
                        <mxPoint x="590" y="600" as="targetPoint"/>
                    </mxGeometry>
                </mxCell>
                <mxCell id="44" style="edgeStyle=none;html=1;exitX=1;exitY=0;exitDx=0;exitDy=0;fontColor=#000000;endArrow=none;endFill=0;" parent="1" source="16" target="45" edge="1">
                    <mxGeometry relative="1" as="geometry">
                        <mxPoint x="1320" y="460" as="targetPoint"/>
                    </mxGeometry>
                </mxCell>
                <mxCell id="47" style="edgeStyle=none;html=1;fontColor=#000000;endArrow=none;endFill=0;exitX=1;exitY=1;exitDx=0;exitDy=0;" parent="1" source="16" target="48" edge="1">
                    <mxGeometry relative="1" as="geometry">
                        <mxPoint x="1160" y="740" as="targetPoint"/>
                        <mxPoint x="1240" y="670" as="sourcePoint"/>
                    </mxGeometry>
                </mxCell>
                <mxCell id="73" style="edgeStyle=none;html=1;exitX=0;exitY=0;exitDx=0;exitDy=0;fontColor=#000000;endArrow=none;endFill=0;" parent="1" source="16" target="74" edge="1">
                    <mxGeometry relative="1" as="geometry">
                        <mxPoint x="1200" y="350" as="targetPoint"/>
                    </mxGeometry>
                </mxCell>
                <mxCell id="78" style="edgeStyle=none;html=1;exitX=0;exitY=1;exitDx=0;exitDy=0;endArrow=none;endFill=0;" parent="1" source="16" target="79" edge="1">
                    <mxGeometry relative="1" as="geometry">
                        <mxPoint x="1140" y="740" as="targetPoint"/>
                    </mxGeometry>
                </mxCell>
                <mxCell id="16" value="" style="rhombus;whiteSpace=wrap;html=1;" parent="1" vertex="1">
                    <mxGeometry x="1190" y="540" width="120" height="120" as="geometry"/>
                </mxCell>
                <mxCell id="19" value="Local" style="text;html=1;align=center;verticalAlign=middle;whiteSpace=wrap;rounded=0;" parent="1" vertex="1">
                    <mxGeometry x="1220" y="585" width="60" height="30" as="geometry"/>
                </mxCell>
                <mxCell id="21" value="Nome" style="ellipse;whiteSpace=wrap;html=1;aspect=fixed;rotation=-30;" parent="1" vertex="1">
                    <mxGeometry x="-435" y="440" width="70" height="70" as="geometry"/>
                </mxCell>
                <mxCell id="25" value="&lt;font color=&quot;#000000&quot;&gt;email&lt;br&gt;&lt;/font&gt;" style="ellipse;whiteSpace=wrap;html=1;aspect=fixed;" parent="1" vertex="1">
                    <mxGeometry x="-295" y="410" width="70" height="70" as="geometry"/>
                </mxCell>
                <mxCell id="36" value="ID" style="ellipse;whiteSpace=wrap;html=1;aspect=fixed;" parent="1" vertex="1">
                    <mxGeometry x="55" y="450" width="60" height="60" as="geometry"/>
                </mxCell>
                <mxCell id="42" value="Data/Hora" style="ellipse;whiteSpace=wrap;html=1;aspect=fixed;" parent="1" vertex="1">
                    <mxGeometry x="189" y="695" width="80" height="80" as="geometry"/>
                </mxCell>
                <mxCell id="45" value="Endereço&lt;div&gt;&lt;br&gt;&lt;/div&gt;" style="ellipse;whiteSpace=wrap;html=1;aspect=fixed;" parent="1" vertex="1">
                    <mxGeometry x="1280" y="420" width="80" height="80" as="geometry"/>
                </mxCell>
                <mxCell id="48" value="Capacidade" style="ellipse;whiteSpace=wrap;html=1;aspect=fixed;" parent="1" vertex="1">
                    <mxGeometry x="1290" y="720" width="80" height="80" as="geometry"/>
                </mxCell>
                <mxCell id="56" value="Nome" style="ellipse;whiteSpace=wrap;html=1;aspect=fixed;" parent="1" vertex="1">
                    <mxGeometry x="540" y="405" width="80" height="80" as="geometry"/>
                </mxCell>
                <mxCell id="65" value="" style="ellipse;whiteSpace=wrap;html=1;aspect=fixed;" parent="1" vertex="1">
                    <mxGeometry x="750" y="320" width="80" height="80" as="geometry"/>
                </mxCell>
                <mxCell id="66" value="Descrição" style="text;html=1;align=center;verticalAlign=middle;whiteSpace=wrap;rounded=0;" parent="1" vertex="1">
                    <mxGeometry x="760" y="345" width="60" height="30" as="geometry"/>
                </mxCell>
                <mxCell id="zBVtbjsKA-3f5Eu_UvvL-69" value="&lt;font style=&quot;color: rgb(0, 0, 0);&quot;&gt;ID&lt;/font&gt;" style="ellipse;whiteSpace=wrap;html=1;aspect=fixed;fontFamily=Helvetica;fontSize=11;" parent="1" vertex="1">
                    <mxGeometry x="770" y="660" width="50" height="50" as="geometry"/>
                </mxCell>
                <mxCell id="YFclPP9cMdC0-PAfr8tu-67" value="ID" style="ellipse;whiteSpace=wrap;html=1;aspect=fixed;fontFamily=Helvetica;fontSize=11;" parent="1" vertex="1">
                    <mxGeometry x="-490" y="570" width="70" height="70" as="geometry"/>
                </mxCell>
                <mxCell id="68" value="Telefone" style="ellipse;whiteSpace=wrap;html=1;aspect=fixed;" parent="1" vertex="1">
                    <mxGeometry x="-175" y="430" width="80" height="80" as="geometry"/>
                </mxCell>
                <mxCell id="70" value="CPF" style="ellipse;whiteSpace=wrap;html=1;aspect=fixed;" parent="1" vertex="1">
                    <mxGeometry x="-405" y="700" width="80" height="80" as="geometry"/>
                </mxCell>
                <mxCell id="72" value="Data Fim" style="ellipse;whiteSpace=wrap;html=1;aspect=fixed;" parent="1" vertex="1">
                    <mxGeometry x="660" y="710" width="80" height="80" as="geometry"/>
                </mxCell>
                <mxCell id="74" value="Nome" style="ellipse;whiteSpace=wrap;html=1;aspect=fixed;" parent="1" vertex="1">
                    <mxGeometry x="1160" y="310" width="80" height="80" as="geometry"/>
                </mxCell>
                <mxCell id="77" value="&lt;div&gt;Data Inicio&lt;/div&gt;" style="ellipse;whiteSpace=wrap;html=1;aspect=fixed;" parent="1" vertex="1">
                    <mxGeometry x="510" y="705" width="80" height="80" as="geometry"/>
                </mxCell>
                <mxCell id="79" value="ID" style="ellipse;whiteSpace=wrap;html=1;aspect=fixed;fontFamily=Helvetica;fontSize=11;labelBackgroundColor=default;" parent="1" vertex="1">
                    <mxGeometry x="1100" y="700" width="80" height="80" as="geometry"/>
                </mxCell>
                <mxCell id="kfTBa1QCEg8ZJyx0yCpS-80" value="" style="html=1;endArrow=none;endFill=0;entryX=0;entryY=0.5;entryDx=0;entryDy=0;" parent="1" source="2" target="kfTBa1QCEg8ZJyx0yCpS-79" edge="1">
                    <mxGeometry relative="1" as="geometry">
                        <mxPoint x="105" y="600" as="targetPoint"/>
                        <mxPoint x="-75" y="600" as="sourcePoint"/>
                    </mxGeometry>
                </mxCell>
                <mxCell id="kfTBa1QCEg8ZJyx0yCpS-79" value="(1:N)" style="text;html=1;align=center;verticalAlign=middle;whiteSpace=wrap;rounded=0;fontFamily=Helvetica;fontSize=12;fontColor=default;" parent="1" vertex="1">
                    <mxGeometry x="-240" y="585" width="30" height="30" as="geometry"/>
                </mxCell>
                <mxCell id="kfTBa1QCEg8ZJyx0yCpS-82" value="" style="html=1;endArrow=none;endFill=0;entryX=0;entryY=0.5;entryDx=0;entryDy=0;" parent="1" source="kfTBa1QCEg8ZJyx0yCpS-79" target="kfTBa1QCEg8ZJyx0yCpS-81" edge="1">
                    <mxGeometry relative="1" as="geometry">
                        <mxPoint x="105" y="600" as="targetPoint"/>
                        <mxPoint x="-45" y="600" as="sourcePoint"/>
                    </mxGeometry>
                </mxCell>
                <mxCell id="kfTBa1QCEg8ZJyx0yCpS-81" value="(1:N)" style="text;html=1;align=center;verticalAlign=middle;whiteSpace=wrap;rounded=0;fontFamily=Helvetica;fontSize=12;fontColor=default;" parent="1" vertex="1">
                    <mxGeometry x="75" y="585" width="30" height="30" as="geometry"/>
                </mxCell>
                <mxCell id="kfTBa1QCEg8ZJyx0yCpS-87" value="" style="edgeStyle=none;html=1;fontColor=#000000;endArrow=none;endFill=0;entryX=0;entryY=0.5;entryDx=0;entryDy=0;" parent="1" source="6" target="kfTBa1QCEg8ZJyx0yCpS-86" edge="1">
                    <mxGeometry relative="1" as="geometry">
                        <mxPoint x="225" y="600" as="sourcePoint"/>
                        <mxPoint x="590" y="600" as="targetPoint"/>
                    </mxGeometry>
                </mxCell>
                <mxCell id="kfTBa1QCEg8ZJyx0yCpS-86" value="(N:1)" style="text;html=1;align=center;verticalAlign=middle;whiteSpace=wrap;rounded=0;fontFamily=Helvetica;fontSize=12;fontColor=default;" parent="1" vertex="1">
                    <mxGeometry x="225" y="585" width="29" height="30" as="geometry"/>
                </mxCell>
                <mxCell id="kfTBa1QCEg8ZJyx0yCpS-89" value="" style="edgeStyle=none;html=1;fontColor=#000000;endArrow=none;endFill=0;entryX=0;entryY=0.5;entryDx=0;entryDy=0;" parent="1" source="kfTBa1QCEg8ZJyx0yCpS-86" target="kfTBa1QCEg8ZJyx0yCpS-88" edge="1">
                    <mxGeometry relative="1" as="geometry">
                        <mxPoint x="254" y="600" as="sourcePoint"/>
                        <mxPoint x="590" y="600" as="targetPoint"/>
                    </mxGeometry>
                </mxCell>
                <mxCell id="kfTBa1QCEg8ZJyx0yCpS-88" value="(N:1)" style="text;html=1;align=center;verticalAlign=middle;whiteSpace=wrap;rounded=0;fontFamily=Helvetica;fontSize=12;fontColor=default;" parent="1" vertex="1">
                    <mxGeometry x="560" y="584.5" width="30" height="30" as="geometry"/>
                </mxCell>
                <mxCell id="kfTBa1QCEg8ZJyx0yCpS-91" value="" style="edgeStyle=none;html=1;fontColor=#000000;endArrow=none;endFill=0;startArrow=none;" parent="1" source="kfTBa1QCEg8ZJyx0yCpS-92" target="kfTBa1QCEg8ZJyx0yCpS-90" edge="1">
                    <mxGeometry relative="1" as="geometry">
                        <mxPoint x="1190" y="600" as="sourcePoint"/>
                        <mxPoint x="710" y="600" as="targetPoint"/>
                    </mxGeometry>
                </mxCell>
                <mxCell id="kfTBa1QCEg8ZJyx0yCpS-90" value="(N:1)" style="text;html=1;align=center;verticalAlign=middle;whiteSpace=wrap;rounded=0;fontFamily=Helvetica;fontSize=12;fontColor=default;" parent="1" vertex="1">
                    <mxGeometry x="710" y="584" width="30" height="30" as="geometry"/>
                </mxCell>
                <mxCell id="kfTBa1QCEg8ZJyx0yCpS-93" value="" style="edgeStyle=none;html=1;fontColor=#000000;endArrow=none;endFill=0;startArrow=none;" parent="1" source="16" target="kfTBa1QCEg8ZJyx0yCpS-92" edge="1">
                    <mxGeometry relative="1" as="geometry">
                        <mxPoint x="1190" y="600" as="sourcePoint"/>
                        <mxPoint x="740" y="599" as="targetPoint"/>
                    </mxGeometry>
                </mxCell>
                <mxCell id="kfTBa1QCEg8ZJyx0yCpS-92" value="(N:1)" style="text;html=1;align=center;verticalAlign=middle;whiteSpace=wrap;rounded=0;fontFamily=Helvetica;fontSize=12;fontColor=default;" parent="1" vertex="1">
                    <mxGeometry x="1150" y="584" width="40" height="30" as="geometry"/>
                </mxCell>
            </root>
        </mxGraphModel>
    </diagram>
    <diagram id="1M4WCyiPqBJGXV5D22og" name="Sistem de Gestão de Ordens de Produção">
        <mxGraphModel dx="2066" dy="779" grid="1" gridSize="10" guides="1" tooltips="1" connect="1" arrows="1" fold="1" page="1" pageScale="1" pageWidth="850" pageHeight="1100" math="0" shadow="0">
            <root>
                <mxCell id="0"/>
                <mxCell id="1" parent="0"/>
                <mxCell id="nBurO2bEa_f4pWhD5YjE-4" style="edgeStyle=none;html=1;exitX=0;exitY=0.5;exitDx=0;exitDy=0;endArrow=none;endFill=0;" parent="1" source="nBurO2bEa_f4pWhD5YjE-18" edge="1">
                    <mxGeometry relative="1" as="geometry">
                        <mxPoint x="475.0000000000002" y="500.0923076923077" as="targetPoint"/>
                        <mxPoint x="740" y="500.5" as="sourcePoint"/>
                    </mxGeometry>
                </mxCell>
                <mxCell id="nBurO2bEa_f4pWhD5YjE-6" style="edgeStyle=none;html=1;exitX=0;exitY=0.5;exitDx=0;exitDy=0;endArrow=none;endFill=0;" parent="1" source="nBurO2bEa_f4pWhD5YjE-22" target="nBurO2bEa_f4pWhD5YjE-7" edge="1">
                    <mxGeometry relative="1" as="geometry">
                        <mxPoint x="235" y="499.75" as="targetPoint"/>
                        <mxPoint x="355.0000000000002" y="500" as="sourcePoint"/>
                    </mxGeometry>
                </mxCell>
                <mxCell id="nBurO2bEa_f4pWhD5YjE-13" style="edgeStyle=none;html=1;exitX=0.25;exitY=0;exitDx=0;exitDy=0;endArrow=none;endFill=0;" parent="1" source="nBurO2bEa_f4pWhD5YjE-7" target="nBurO2bEa_f4pWhD5YjE-14" edge="1">
                    <mxGeometry relative="1" as="geometry">
                        <mxPoint x="49.526315789473756" y="370" as="targetPoint"/>
                    </mxGeometry>
                </mxCell>
                <mxCell id="nBurO2bEa_f4pWhD5YjE-15" style="edgeStyle=none;html=1;exitX=0.25;exitY=1;exitDx=0;exitDy=0;endArrow=none;endFill=0;" parent="1" source="nBurO2bEa_f4pWhD5YjE-7" target="nBurO2bEa_f4pWhD5YjE-31" edge="1">
                    <mxGeometry relative="1" as="geometry">
                        <mxPoint x="30" y="650" as="targetPoint"/>
                    </mxGeometry>
                </mxCell>
                <mxCell id="SgAaER4qDkInQGR3biGT-1" style="edgeStyle=none;shape=connector;rounded=1;html=1;exitX=0.5;exitY=0;exitDx=0;exitDy=0;strokeColor=default;align=center;verticalAlign=middle;fontFamily=Helvetica;fontSize=12;fontColor=default;labelBackgroundColor=default;endArrow=none;endFill=0;" parent="1" source="nBurO2bEa_f4pWhD5YjE-7" target="SgAaER4qDkInQGR3biGT-2" edge="1">
                    <mxGeometry relative="1" as="geometry">
                        <mxPoint x="110" y="360" as="targetPoint"/>
                    </mxGeometry>
                </mxCell>
                <mxCell id="SgAaER4qDkInQGR3biGT-3" style="edgeStyle=none;shape=connector;rounded=1;html=1;exitX=0.5;exitY=1;exitDx=0;exitDy=0;strokeColor=default;align=center;verticalAlign=middle;fontFamily=Helvetica;fontSize=12;fontColor=default;labelBackgroundColor=default;endArrow=none;endFill=0;" parent="1" source="nBurO2bEa_f4pWhD5YjE-7" target="SgAaER4qDkInQGR3biGT-4" edge="1">
                    <mxGeometry relative="1" as="geometry">
                        <mxPoint x="100" y="670" as="targetPoint"/>
                    </mxGeometry>
                </mxCell>
                <mxCell id="nBurO2bEa_f4pWhD5YjE-7" value="Funcionário" style="rounded=0;whiteSpace=wrap;html=1;" parent="1" vertex="1">
                    <mxGeometry x="20" y="469.75" width="120" height="60" as="geometry"/>
                </mxCell>
                <mxCell id="nBurO2bEa_f4pWhD5YjE-8" value="Fornecedor" style="rounded=0;whiteSpace=wrap;html=1;" parent="1" vertex="1">
                    <mxGeometry x="390" y="190" width="120" height="60" as="geometry"/>
                </mxCell>
                <mxCell id="nBurO2bEa_f4pWhD5YjE-14" value="ID" style="ellipse;whiteSpace=wrap;html=1;aspect=fixed;" parent="1" vertex="1">
                    <mxGeometry y="320" width="52" height="52" as="geometry"/>
                </mxCell>
                <mxCell id="SgAaER4qDkInQGR3biGT-11" style="edgeStyle=none;shape=connector;rounded=1;html=1;exitX=0.25;exitY=1;exitDx=0;exitDy=0;strokeColor=default;align=center;verticalAlign=middle;fontFamily=Helvetica;fontSize=12;fontColor=default;labelBackgroundColor=default;endArrow=none;endFill=0;" parent="1" source="nBurO2bEa_f4pWhD5YjE-17" target="SgAaER4qDkInQGR3biGT-12" edge="1">
                    <mxGeometry relative="1" as="geometry">
                        <mxPoint x="690" y="620" as="targetPoint"/>
                    </mxGeometry>
                </mxCell>
                <mxCell id="SgAaER4qDkInQGR3biGT-13" style="edgeStyle=none;shape=connector;rounded=1;html=1;exitX=1;exitY=0.5;exitDx=0;exitDy=0;strokeColor=default;align=center;verticalAlign=middle;fontFamily=Helvetica;fontSize=12;fontColor=default;labelBackgroundColor=default;endArrow=none;endFill=0;" parent="1" source="nBurO2bEa_f4pWhD5YjE-17" target="SgAaER4qDkInQGR3biGT-14" edge="1">
                    <mxGeometry relative="1" as="geometry">
                        <mxPoint x="790" y="400" as="targetPoint"/>
                    </mxGeometry>
                </mxCell>
                <mxCell id="SgAaER4qDkInQGR3biGT-15" style="edgeStyle=none;shape=connector;rounded=1;html=1;exitX=0.75;exitY=1;exitDx=0;exitDy=0;strokeColor=default;align=center;verticalAlign=middle;fontFamily=Helvetica;fontSize=12;fontColor=default;labelBackgroundColor=default;endArrow=none;endFill=0;" parent="1" source="nBurO2bEa_f4pWhD5YjE-17" target="SgAaER4qDkInQGR3biGT-16" edge="1">
                    <mxGeometry relative="1" as="geometry">
                        <mxPoint x="880" y="630" as="targetPoint"/>
                    </mxGeometry>
                </mxCell>
                <mxCell id="nBurO2bEa_f4pWhD5YjE-17" value="Produto" style="rounded=0;whiteSpace=wrap;html=1;" parent="1" vertex="1">
                    <mxGeometry x="740" y="470.5" width="120" height="60" as="geometry"/>
                </mxCell>
                <mxCell id="nBurO2bEa_f4pWhD5YjE-21" value="" style="edgeStyle=none;html=1;endArrow=none;endFill=0;exitX=0;exitY=0.5;exitDx=0;exitDy=0;" parent="1" source="nBurO2bEa_f4pWhD5YjE-28" target="nBurO2bEa_f4pWhD5YjE-22" edge="1">
                    <mxGeometry relative="1" as="geometry">
                        <mxPoint x="140" y="500" as="targetPoint"/>
                        <mxPoint x="355" y="500" as="sourcePoint"/>
                    </mxGeometry>
                </mxCell>
                <mxCell id="nBurO2bEa_f4pWhD5YjE-22" value="(1:N)" style="text;html=1;align=center;verticalAlign=middle;whiteSpace=wrap;rounded=0;" parent="1" vertex="1">
                    <mxGeometry x="140" y="484.75" width="30" height="30" as="geometry"/>
                </mxCell>
                <mxCell id="nBurO2bEa_f4pWhD5YjE-24" value="" style="edgeStyle=none;html=1;exitX=0;exitY=0.5;exitDx=0;exitDy=0;endArrow=none;endFill=0;" parent="1" target="nBurO2bEa_f4pWhD5YjE-25" edge="1">
                    <mxGeometry relative="1" as="geometry">
                        <mxPoint x="475.0000000000002" y="500.0923076923077" as="targetPoint"/>
                        <mxPoint x="740" y="500.5" as="sourcePoint"/>
                    </mxGeometry>
                </mxCell>
                <mxCell id="nBurO2bEa_f4pWhD5YjE-25" value="(1:N)" style="text;html=1;align=center;verticalAlign=middle;whiteSpace=wrap;rounded=0;" parent="1" vertex="1">
                    <mxGeometry x="710" y="484.75" width="30" height="30" as="geometry"/>
                </mxCell>
                <mxCell id="nBurO2bEa_f4pWhD5YjE-26" value="" style="edgeStyle=none;html=1;exitX=0;exitY=0.5;exitDx=0;exitDy=0;endArrow=none;endFill=0;" parent="1" source="nBurO2bEa_f4pWhD5YjE-29" target="nBurO2bEa_f4pWhD5YjE-18" edge="1">
                    <mxGeometry relative="1" as="geometry">
                        <mxPoint x="475.0000000000002" y="500.0923076923077" as="targetPoint"/>
                        <mxPoint x="710" y="500" as="sourcePoint"/>
                    </mxGeometry>
                </mxCell>
                <mxCell id="SgAaER4qDkInQGR3biGT-5" style="edgeStyle=none;shape=connector;rounded=1;html=1;exitX=0.25;exitY=1;exitDx=0;exitDy=0;strokeColor=default;align=center;verticalAlign=middle;fontFamily=Helvetica;fontSize=12;fontColor=default;labelBackgroundColor=default;endArrow=none;endFill=0;" parent="1" source="nBurO2bEa_f4pWhD5YjE-18" target="SgAaER4qDkInQGR3biGT-6" edge="1">
                    <mxGeometry relative="1" as="geometry">
                        <mxPoint x="370" y="630" as="targetPoint"/>
                    </mxGeometry>
                </mxCell>
                <mxCell id="SgAaER4qDkInQGR3biGT-7" style="edgeStyle=none;shape=connector;rounded=1;html=1;exitX=0.75;exitY=0;exitDx=0;exitDy=0;strokeColor=default;align=center;verticalAlign=middle;fontFamily=Helvetica;fontSize=12;fontColor=default;labelBackgroundColor=default;endArrow=none;endFill=0;" parent="1" source="nBurO2bEa_f4pWhD5YjE-18" target="SgAaER4qDkInQGR3biGT-8" edge="1">
                    <mxGeometry relative="1" as="geometry">
                        <mxPoint x="500" y="390" as="targetPoint"/>
                    </mxGeometry>
                </mxCell>
                <mxCell id="SgAaER4qDkInQGR3biGT-9" style="edgeStyle=none;shape=connector;rounded=1;html=1;exitX=0.75;exitY=1;exitDx=0;exitDy=0;strokeColor=default;align=center;verticalAlign=middle;fontFamily=Helvetica;fontSize=12;fontColor=default;labelBackgroundColor=default;endArrow=none;endFill=0;" parent="1" source="nBurO2bEa_f4pWhD5YjE-18" target="SgAaER4qDkInQGR3biGT-10" edge="1">
                    <mxGeometry relative="1" as="geometry">
                        <mxPoint x="500" y="640" as="targetPoint"/>
                    </mxGeometry>
                </mxCell>
                <mxCell id="SgAaER4qDkInQGR3biGT-17" style="edgeStyle=none;shape=connector;rounded=1;html=1;exitX=0.25;exitY=0;exitDx=0;exitDy=0;strokeColor=default;align=center;verticalAlign=middle;fontFamily=Helvetica;fontSize=12;fontColor=default;labelBackgroundColor=default;endArrow=none;endFill=0;" parent="1" source="nBurO2bEa_f4pWhD5YjE-18" target="SgAaER4qDkInQGR3biGT-18" edge="1">
                    <mxGeometry relative="1" as="geometry">
                        <mxPoint x="400" y="380" as="targetPoint"/>
                    </mxGeometry>
                </mxCell>
                <mxCell id="nBurO2bEa_f4pWhD5YjE-18" value="Ordem de Produção" style="rounded=0;whiteSpace=wrap;html=1;" parent="1" vertex="1">
                    <mxGeometry x="390" y="469.75" width="120" height="60" as="geometry"/>
                </mxCell>
                <mxCell id="nBurO2bEa_f4pWhD5YjE-27" value="" style="edgeStyle=none;html=1;endArrow=none;endFill=0;exitX=0;exitY=0.5;exitDx=0;exitDy=0;" parent="1" source="nBurO2bEa_f4pWhD5YjE-18" target="nBurO2bEa_f4pWhD5YjE-28" edge="1">
                    <mxGeometry relative="1" as="geometry">
                        <mxPoint x="170" y="500" as="targetPoint"/>
                        <mxPoint x="390" y="500" as="sourcePoint"/>
                    </mxGeometry>
                </mxCell>
                <mxCell id="nBurO2bEa_f4pWhD5YjE-28" value="(1:N)" style="text;html=1;align=center;verticalAlign=middle;whiteSpace=wrap;rounded=0;" parent="1" vertex="1">
                    <mxGeometry x="360" y="485" width="30" height="30" as="geometry"/>
                </mxCell>
                <mxCell id="nBurO2bEa_f4pWhD5YjE-30" value="" style="edgeStyle=none;html=1;exitX=0;exitY=0.5;exitDx=0;exitDy=0;endArrow=none;endFill=0;" parent="1" source="nBurO2bEa_f4pWhD5YjE-25" target="nBurO2bEa_f4pWhD5YjE-29" edge="1">
                    <mxGeometry relative="1" as="geometry">
                        <mxPoint x="510" y="500" as="targetPoint"/>
                        <mxPoint x="710" y="500" as="sourcePoint"/>
                    </mxGeometry>
                </mxCell>
                <mxCell id="nBurO2bEa_f4pWhD5YjE-29" value="(1:N)" style="text;html=1;align=center;verticalAlign=middle;whiteSpace=wrap;rounded=0;" parent="1" vertex="1">
                    <mxGeometry x="510" y="485" width="30" height="30" as="geometry"/>
                </mxCell>
                <mxCell id="nBurO2bEa_f4pWhD5YjE-31" value="Email" style="ellipse;whiteSpace=wrap;html=1;aspect=fixed;" parent="1" vertex="1">
                    <mxGeometry x="-30" y="640" width="60" height="60" as="geometry"/>
                </mxCell>
                <mxCell id="SgAaER4qDkInQGR3biGT-2" value="Telefone" style="ellipse;whiteSpace=wrap;html=1;aspect=fixed;rounded=0;align=center;verticalAlign=middle;fontFamily=Helvetica;fontSize=12;" parent="1" vertex="1">
                    <mxGeometry x="70" y="330" width="70" height="70" as="geometry"/>
                </mxCell>
                <mxCell id="SgAaER4qDkInQGR3biGT-4" value="Nome" style="ellipse;whiteSpace=wrap;html=1;aspect=fixed;rounded=0;strokeColor=default;align=center;verticalAlign=middle;fontFamily=Helvetica;fontSize=12;fontColor=default;fillColor=default;" parent="1" vertex="1">
                    <mxGeometry x="60" y="630" width="50" height="50" as="geometry"/>
                </mxCell>
                <mxCell id="SgAaER4qDkInQGR3biGT-6" value="ID" style="ellipse;whiteSpace=wrap;html=1;aspect=fixed;rounded=0;strokeColor=default;align=center;verticalAlign=middle;fontFamily=Helvetica;fontSize=12;fontColor=default;fillColor=default;" parent="1" vertex="1">
                    <mxGeometry x="380" y="630" width="50" height="50" as="geometry"/>
                </mxCell>
                <mxCell id="SgAaER4qDkInQGR3biGT-8" value="Data de inicio" style="ellipse;whiteSpace=wrap;html=1;aspect=fixed;rounded=0;strokeColor=default;align=center;verticalAlign=middle;fontFamily=Helvetica;fontSize=12;fontColor=default;fillColor=default;" parent="1" vertex="1">
                    <mxGeometry x="470" y="330" width="70" height="70" as="geometry"/>
                </mxCell>
                <mxCell id="SgAaER4qDkInQGR3biGT-10" value="Data final" style="ellipse;whiteSpace=wrap;html=1;aspect=fixed;rounded=0;strokeColor=default;align=center;verticalAlign=middle;fontFamily=Helvetica;fontSize=12;fontColor=default;fillColor=default;" parent="1" vertex="1">
                    <mxGeometry x="460" y="600" width="60" height="60" as="geometry"/>
                </mxCell>
                <mxCell id="SgAaER4qDkInQGR3biGT-12" value="Nome" style="ellipse;whiteSpace=wrap;html=1;aspect=fixed;rounded=0;strokeColor=default;align=center;verticalAlign=middle;fontFamily=Helvetica;fontSize=12;fontColor=default;fillColor=default;" parent="1" vertex="1">
                    <mxGeometry x="700" y="630" width="50" height="50" as="geometry"/>
                </mxCell>
                <mxCell id="SgAaER4qDkInQGR3biGT-14" value="Descrição" style="ellipse;whiteSpace=wrap;html=1;aspect=fixed;rounded=0;strokeColor=default;align=center;verticalAlign=middle;fontFamily=Helvetica;fontSize=12;fontColor=default;fillColor=default;" parent="1" vertex="1">
                    <mxGeometry x="940" y="465" width="70" height="70" as="geometry"/>
                </mxCell>
                <mxCell id="SgAaER4qDkInQGR3biGT-16" value="Preço" style="ellipse;whiteSpace=wrap;html=1;aspect=fixed;rounded=0;strokeColor=default;align=center;verticalAlign=middle;fontFamily=Helvetica;fontSize=12;fontColor=default;fillColor=default;" parent="1" vertex="1">
                    <mxGeometry x="840" y="590" width="60" height="60" as="geometry"/>
                </mxCell>
                <mxCell id="SgAaER4qDkInQGR3biGT-18" value="Valor final" style="ellipse;whiteSpace=wrap;html=1;aspect=fixed;rounded=0;strokeColor=default;align=center;verticalAlign=middle;fontFamily=Helvetica;fontSize=12;fontColor=default;fillColor=default;" parent="1" vertex="1">
                    <mxGeometry x="350" y="330" width="50" height="50" as="geometry"/>
                </mxCell>
                <mxCell id="VnoGPj9FIdyqpwOsfgMf-3" value="" style="edgeStyle=none;html=1;exitX=1;exitY=0.5;exitDx=0;exitDy=0;endArrow=none;endFill=0;" parent="1" source="nBurO2bEa_f4pWhD5YjE-8" edge="1">
                    <mxGeometry relative="1" as="geometry">
                        <mxPoint x="510" y="220" as="sourcePoint"/>
                        <mxPoint x="510" y="220" as="targetPoint"/>
                        <Array as="points"/>
                    </mxGeometry>
                </mxCell>
                <mxCell id="VnoGPj9FIdyqpwOsfgMf-2" value="(N:N)" style="text;html=1;align=center;verticalAlign=middle;whiteSpace=wrap;rounded=0;" parent="1" vertex="1">
                    <mxGeometry x="510" y="205" width="30" height="30" as="geometry"/>
                </mxCell>
                <mxCell id="VnoGPj9FIdyqpwOsfgMf-5" value="" style="edgeStyle=none;html=1;exitX=1;exitY=0.5;exitDx=0;exitDy=0;entryX=0.5;entryY=0;entryDx=0;entryDy=0;endArrow=none;endFill=0;" parent="1" source="VnoGPj9FIdyqpwOsfgMf-2" target="VnoGPj9FIdyqpwOsfgMf-4" edge="1">
                    <mxGeometry relative="1" as="geometry">
                        <mxPoint x="540" y="220" as="sourcePoint"/>
                        <mxPoint x="770" y="471" as="targetPoint"/>
                        <Array as="points">
                            <mxPoint x="790" y="220"/>
                        </Array>
                    </mxGeometry>
                </mxCell>
                <mxCell id="VnoGPj9FIdyqpwOsfgMf-4" value="(N:N)" style="text;html=1;align=center;verticalAlign=middle;whiteSpace=wrap;rounded=0;" parent="1" vertex="1">
                    <mxGeometry x="760" y="440.5" width="60" height="30" as="geometry"/>
                </mxCell>
            </root>
        </mxGraphModel>
    </diagram>
    <diagram id="dr1Qvx88KBJaIVN_RhD0" name="Sistema de Gestão de Saúde">
        <mxGraphModel dx="1863" dy="649" grid="1" gridSize="10" guides="1" tooltips="1" connect="1" arrows="1" fold="1" page="1" pageScale="1" pageWidth="850" pageHeight="1100" math="0" shadow="0">
            <root>
                <mxCell id="0"/>
                <mxCell id="1" parent="0"/>
                <mxCell id="nPT687pGPDoJ6YuOVTEo-1" style="edgeStyle=none;html=1;exitX=1;exitY=0.5;exitDx=0;exitDy=0;fontColor=#000000;endArrow=none;endFill=0;startArrow=none;" parent="1" source="tVOATgD5obAlSXqJcIF7-31" target="nPT687pGPDoJ6YuOVTEo-2" edge="1">
                    <mxGeometry relative="1" as="geometry">
                        <mxPoint x="520" y="560" as="targetPoint"/>
                    </mxGeometry>
                </mxCell>
                <mxCell id="nPT687pGPDoJ6YuOVTEo-11" style="edgeStyle=none;html=1;exitX=0.5;exitY=0;exitDx=0;exitDy=0;fontColor=#000000;endArrow=none;endFill=0;" parent="1" source="v6dHI_zhfIR5_jQdszG_-1" target="nPT687pGPDoJ6YuOVTEo-12" edge="1">
                    <mxGeometry relative="1" as="geometry">
                        <mxPoint x="-380" y="410" as="targetPoint"/>
                    </mxGeometry>
                </mxCell>
                <mxCell id="7QRfpfaqpKaJ4yjYZjXz-10" style="edgeStyle=none;shape=connector;rounded=1;html=1;exitX=0.75;exitY=0;exitDx=0;exitDy=0;labelBackgroundColor=default;fontFamily=Helvetica;fontSize=11;fontColor=#000000;endArrow=none;endFill=0;" parent="1" source="v6dHI_zhfIR5_jQdszG_-1" target="7QRfpfaqpKaJ4yjYZjXz-11" edge="1">
                    <mxGeometry relative="1" as="geometry">
                        <mxPoint x="-350" y="430" as="targetPoint"/>
                    </mxGeometry>
                </mxCell>
                <mxCell id="7QRfpfaqpKaJ4yjYZjXz-13" style="edgeStyle=none;shape=connector;rounded=1;html=1;exitX=0.25;exitY=0;exitDx=0;exitDy=0;labelBackgroundColor=default;fontFamily=Helvetica;fontSize=11;fontColor=#000000;endArrow=none;endFill=0;" parent="1" source="v6dHI_zhfIR5_jQdszG_-1" target="7QRfpfaqpKaJ4yjYZjXz-14" edge="1">
                    <mxGeometry relative="1" as="geometry">
                        <mxPoint x="-470" y="440" as="targetPoint"/>
                    </mxGeometry>
                </mxCell>
                <mxCell id="GFVxzaxemuZA8G760R3r-7" style="edgeStyle=none;shape=connector;rounded=1;html=1;exitX=0;exitY=0.5;exitDx=0;exitDy=0;labelBackgroundColor=default;fontFamily=Helvetica;fontSize=11;fontColor=#000000;endArrow=none;endFill=0;" parent="1" source="v6dHI_zhfIR5_jQdszG_-1" target="GFVxzaxemuZA8G760R3r-8" edge="1">
                    <mxGeometry relative="1" as="geometry">
                        <mxPoint x="-550" y="560" as="targetPoint"/>
                    </mxGeometry>
                </mxCell>
                <mxCell id="tVOATgD5obAlSXqJcIF7-2" style="edgeStyle=none;shape=connector;rounded=1;html=1;exitX=0.25;exitY=1;exitDx=0;exitDy=0;strokeColor=default;align=center;verticalAlign=middle;fontFamily=Helvetica;fontSize=12;fontColor=default;labelBackgroundColor=default;endArrow=none;endFill=0;" parent="1" source="v6dHI_zhfIR5_jQdszG_-1" target="tVOATgD5obAlSXqJcIF7-3" edge="1">
                    <mxGeometry relative="1" as="geometry">
                        <mxPoint x="-460" y="640" as="targetPoint"/>
                    </mxGeometry>
                </mxCell>
                <mxCell id="tVOATgD5obAlSXqJcIF7-4" style="edgeStyle=none;shape=connector;rounded=1;html=1;exitX=0.5;exitY=1;exitDx=0;exitDy=0;strokeColor=default;align=center;verticalAlign=middle;fontFamily=Helvetica;fontSize=12;fontColor=default;labelBackgroundColor=default;endArrow=none;endFill=0;" parent="1" source="v6dHI_zhfIR5_jQdszG_-1" target="tVOATgD5obAlSXqJcIF7-5" edge="1">
                    <mxGeometry relative="1" as="geometry">
                        <mxPoint x="-379.71428571428555" y="650" as="targetPoint"/>
                    </mxGeometry>
                </mxCell>
                <mxCell id="v6dHI_zhfIR5_jQdszG_-1" value="" style="rounded=0;whiteSpace=wrap;html=1;shadow=0;glass=0;sketch=0;" parent="1" vertex="1">
                    <mxGeometry x="-440" y="530" width="120" height="60" as="geometry"/>
                </mxCell>
                <mxCell id="nPT687pGPDoJ6YuOVTEo-8" style="edgeStyle=none;html=1;exitX=1;exitY=0.5;exitDx=0;exitDy=0;fontColor=#000000;endArrow=none;endFill=0;" parent="1" source="tVOATgD5obAlSXqJcIF7-41" target="nPT687pGPDoJ6YuOVTEo-9" edge="1">
                    <mxGeometry relative="1" as="geometry">
                        <mxPoint x="830" y="560" as="targetPoint"/>
                    </mxGeometry>
                </mxCell>
                <mxCell id="tVOATgD5obAlSXqJcIF7-20" style="edgeStyle=none;shape=connector;rounded=1;html=1;exitX=0.25;exitY=0;exitDx=0;exitDy=0;strokeColor=default;align=center;verticalAlign=middle;fontFamily=Helvetica;fontSize=12;fontColor=default;labelBackgroundColor=default;endArrow=none;endFill=0;" parent="1" source="nPT687pGPDoJ6YuOVTEo-2" target="tVOATgD5obAlSXqJcIF7-21" edge="1">
                    <mxGeometry relative="1" as="geometry">
                        <mxPoint x="690" y="400" as="targetPoint"/>
                    </mxGeometry>
                </mxCell>
                <mxCell id="tVOATgD5obAlSXqJcIF7-22" style="edgeStyle=none;shape=connector;rounded=1;html=1;exitX=0.25;exitY=1;exitDx=0;exitDy=0;strokeColor=default;align=center;verticalAlign=middle;fontFamily=Helvetica;fontSize=12;fontColor=default;labelBackgroundColor=default;endArrow=none;endFill=0;" parent="1" source="nPT687pGPDoJ6YuOVTEo-2" target="tVOATgD5obAlSXqJcIF7-23" edge="1">
                    <mxGeometry relative="1" as="geometry">
                        <mxPoint x="630" y="690" as="targetPoint"/>
                    </mxGeometry>
                </mxCell>
                <mxCell id="tVOATgD5obAlSXqJcIF7-24" style="edgeStyle=none;shape=connector;rounded=1;html=1;exitX=0.5;exitY=1;exitDx=0;exitDy=0;strokeColor=default;align=center;verticalAlign=middle;fontFamily=Helvetica;fontSize=12;fontColor=default;labelBackgroundColor=default;endArrow=none;endFill=0;" parent="1" source="nPT687pGPDoJ6YuOVTEo-2" target="tVOATgD5obAlSXqJcIF7-25" edge="1">
                    <mxGeometry relative="1" as="geometry">
                        <mxPoint x="770" y="710" as="targetPoint"/>
                    </mxGeometry>
                </mxCell>
                <mxCell id="tVOATgD5obAlSXqJcIF7-26" style="edgeStyle=none;shape=connector;rounded=1;html=1;exitX=0.75;exitY=0;exitDx=0;exitDy=0;strokeColor=default;align=center;verticalAlign=middle;fontFamily=Helvetica;fontSize=12;fontColor=default;labelBackgroundColor=default;endArrow=none;endFill=0;" parent="1" source="nPT687pGPDoJ6YuOVTEo-2" target="tVOATgD5obAlSXqJcIF7-27" edge="1">
                    <mxGeometry relative="1" as="geometry">
                        <mxPoint x="780" y="350" as="targetPoint"/>
                    </mxGeometry>
                </mxCell>
                <mxCell id="tVOATgD5obAlSXqJcIF7-28" style="edgeStyle=none;shape=connector;rounded=1;html=1;exitX=1;exitY=1;exitDx=0;exitDy=0;strokeColor=default;align=center;verticalAlign=middle;fontFamily=Helvetica;fontSize=12;fontColor=default;labelBackgroundColor=default;endArrow=none;endFill=0;" parent="1" source="nPT687pGPDoJ6YuOVTEo-2" target="tVOATgD5obAlSXqJcIF7-29" edge="1">
                    <mxGeometry relative="1" as="geometry">
                        <mxPoint x="850" y="660" as="targetPoint"/>
                    </mxGeometry>
                </mxCell>
                <mxCell id="nPT687pGPDoJ6YuOVTEo-2" value="Médico" style="rounded=0;whiteSpace=wrap;html=1;shadow=0;glass=0;sketch=0;" parent="1" vertex="1">
                    <mxGeometry x="665" y="530" width="120" height="60" as="geometry"/>
                </mxCell>
                <mxCell id="nPT687pGPDoJ6YuOVTEo-4" value="" style="edgeStyle=none;html=1;exitX=1;exitY=0.5;exitDx=0;exitDy=0;fontColor=#000000;endArrow=none;endFill=0;" parent="1" source="tVOATgD5obAlSXqJcIF7-7" target="nPT687pGPDoJ6YuOVTEo-3" edge="1">
                    <mxGeometry relative="1" as="geometry">
                        <mxPoint x="290" y="560" as="targetPoint"/>
                        <mxPoint x="60" y="560" as="sourcePoint"/>
                    </mxGeometry>
                </mxCell>
                <mxCell id="tVOATgD5obAlSXqJcIF7-9" style="edgeStyle=none;shape=connector;rounded=1;html=1;exitX=0;exitY=1;exitDx=0;exitDy=0;strokeColor=default;align=center;verticalAlign=middle;fontFamily=Helvetica;fontSize=12;fontColor=default;labelBackgroundColor=default;endArrow=none;endFill=0;" parent="1" source="nPT687pGPDoJ6YuOVTEo-3" target="tVOATgD5obAlSXqJcIF7-10" edge="1">
                    <mxGeometry relative="1" as="geometry">
                        <mxPoint x="-50" y="680" as="targetPoint"/>
                    </mxGeometry>
                </mxCell>
                <mxCell id="tVOATgD5obAlSXqJcIF7-11" style="edgeStyle=none;shape=connector;rounded=1;html=1;exitX=0.5;exitY=1;exitDx=0;exitDy=0;strokeColor=default;align=center;verticalAlign=middle;fontFamily=Helvetica;fontSize=12;fontColor=default;labelBackgroundColor=default;endArrow=none;endFill=0;" parent="1" source="nPT687pGPDoJ6YuOVTEo-3" target="tVOATgD5obAlSXqJcIF7-12" edge="1">
                    <mxGeometry relative="1" as="geometry">
                        <mxPoint x="60" y="700" as="targetPoint"/>
                    </mxGeometry>
                </mxCell>
                <mxCell id="tVOATgD5obAlSXqJcIF7-13" style="edgeStyle=none;shape=connector;rounded=1;html=1;exitX=1;exitY=1;exitDx=0;exitDy=0;strokeColor=default;align=center;verticalAlign=middle;fontFamily=Helvetica;fontSize=12;fontColor=default;labelBackgroundColor=default;endArrow=none;endFill=0;" parent="1" source="nPT687pGPDoJ6YuOVTEo-3" target="tVOATgD5obAlSXqJcIF7-14" edge="1">
                    <mxGeometry relative="1" as="geometry">
                        <mxPoint x="210" y="670" as="targetPoint"/>
                    </mxGeometry>
                </mxCell>
                <mxCell id="tVOATgD5obAlSXqJcIF7-15" style="edgeStyle=none;shape=connector;rounded=1;html=1;exitX=1;exitY=0;exitDx=0;exitDy=0;strokeColor=default;align=center;verticalAlign=middle;fontFamily=Helvetica;fontSize=12;fontColor=default;labelBackgroundColor=default;endArrow=none;endFill=0;" parent="1" source="nPT687pGPDoJ6YuOVTEo-3" target="tVOATgD5obAlSXqJcIF7-16" edge="1">
                    <mxGeometry relative="1" as="geometry">
                        <mxPoint x="210" y="440" as="targetPoint"/>
                    </mxGeometry>
                </mxCell>
                <mxCell id="tVOATgD5obAlSXqJcIF7-17" style="edgeStyle=none;shape=connector;rounded=1;html=1;exitX=0;exitY=0;exitDx=0;exitDy=0;strokeColor=default;align=center;verticalAlign=middle;fontFamily=Helvetica;fontSize=12;fontColor=default;labelBackgroundColor=default;endArrow=none;endFill=0;" parent="1" source="nPT687pGPDoJ6YuOVTEo-3" target="tVOATgD5obAlSXqJcIF7-18" edge="1">
                    <mxGeometry relative="1" as="geometry">
                        <mxPoint x="-10" y="440" as="targetPoint"/>
                    </mxGeometry>
                </mxCell>
                <mxCell id="nPT687pGPDoJ6YuOVTEo-3" value="Consulta" style="rhombus;whiteSpace=wrap;html=1;rounded=0;shadow=0;glass=0;sketch=0;" parent="1" vertex="1">
                    <mxGeometry x="20" y="500" width="157" height="120" as="geometry"/>
                </mxCell>
                <mxCell id="nPT687pGPDoJ6YuOVTEo-5" value="Paciente" style="text;html=1;align=center;verticalAlign=middle;whiteSpace=wrap;rounded=0;shadow=0;glass=0;sketch=0;" parent="1" vertex="1">
                    <mxGeometry x="-410" y="545" width="60" height="30" as="geometry"/>
                </mxCell>
                <mxCell id="tVOATgD5obAlSXqJcIF7-34" style="edgeStyle=none;shape=connector;rounded=1;html=1;exitX=0.25;exitY=0;exitDx=0;exitDy=0;strokeColor=default;align=center;verticalAlign=middle;fontFamily=Helvetica;fontSize=12;fontColor=default;labelBackgroundColor=default;endArrow=none;endFill=0;" parent="1" source="nPT687pGPDoJ6YuOVTEo-9" target="tVOATgD5obAlSXqJcIF7-35" edge="1">
                    <mxGeometry relative="1" as="geometry">
                        <mxPoint x="1250" y="400" as="targetPoint"/>
                    </mxGeometry>
                </mxCell>
                <mxCell id="tVOATgD5obAlSXqJcIF7-38" style="edgeStyle=none;shape=connector;rounded=1;html=1;exitX=0.5;exitY=1;exitDx=0;exitDy=0;strokeColor=default;align=center;verticalAlign=middle;fontFamily=Helvetica;fontSize=12;fontColor=default;labelBackgroundColor=default;endArrow=none;endFill=0;" parent="1" source="nPT687pGPDoJ6YuOVTEo-9" target="tVOATgD5obAlSXqJcIF7-39" edge="1">
                    <mxGeometry relative="1" as="geometry">
                        <mxPoint x="1370" y="700" as="targetPoint"/>
                    </mxGeometry>
                </mxCell>
                <mxCell id="gzAERPlZR-tmKWVRlDNY-1" style="edgeStyle=none;html=1;exitX=0.75;exitY=0;exitDx=0;exitDy=0;endArrow=none;endFill=0;" edge="1" parent="1" source="nPT687pGPDoJ6YuOVTEo-9" target="gzAERPlZR-tmKWVRlDNY-2">
                    <mxGeometry relative="1" as="geometry">
                        <mxPoint x="1420" y="340" as="targetPoint"/>
                    </mxGeometry>
                </mxCell>
                <mxCell id="nPT687pGPDoJ6YuOVTEo-9" value="Especialidade" style="rounded=0;whiteSpace=wrap;html=1;shadow=0;glass=0;sketch=0;" parent="1" vertex="1">
                    <mxGeometry x="1250" y="530" width="120" height="60" as="geometry"/>
                </mxCell>
                <mxCell id="nPT687pGPDoJ6YuOVTEo-12" value="CPF" style="ellipse;whiteSpace=wrap;html=1;aspect=fixed;rounded=0;shadow=0;glass=0;sketch=0;" parent="1" vertex="1">
                    <mxGeometry x="-420" y="340" width="40" height="40" as="geometry"/>
                </mxCell>
                <mxCell id="7QRfpfaqpKaJ4yjYZjXz-11" value="Endereço" style="ellipse;whiteSpace=wrap;html=1;aspect=fixed;fontFamily=Helvetica;fontSize=11;" parent="1" vertex="1">
                    <mxGeometry x="-350" y="420" width="50" height="50" as="geometry"/>
                </mxCell>
                <mxCell id="7QRfpfaqpKaJ4yjYZjXz-14" value="Nome" style="ellipse;whiteSpace=wrap;html=1;aspect=fixed;fontFamily=Helvetica;fontSize=11;" parent="1" vertex="1">
                    <mxGeometry x="-510" y="415" width="60" height="60" as="geometry"/>
                </mxCell>
                <mxCell id="GFVxzaxemuZA8G760R3r-8" value="ID" style="ellipse;whiteSpace=wrap;html=1;aspect=fixed;fontFamily=Helvetica;fontSize=11;" parent="1" vertex="1">
                    <mxGeometry x="-550" y="535" width="50" height="50" as="geometry"/>
                </mxCell>
                <mxCell id="tVOATgD5obAlSXqJcIF7-3" value="Telefone" style="ellipse;whiteSpace=wrap;html=1;aspect=fixed;rounded=0;strokeColor=default;align=center;verticalAlign=middle;fontFamily=Helvetica;fontSize=12;fontColor=default;fillColor=default;" parent="1" vertex="1">
                    <mxGeometry x="-500" y="620" width="60" height="60" as="geometry"/>
                </mxCell>
                <mxCell id="tVOATgD5obAlSXqJcIF7-5" value="Email" style="ellipse;whiteSpace=wrap;html=1;aspect=fixed;rounded=0;strokeColor=default;align=center;verticalAlign=middle;fontFamily=Helvetica;fontSize=12;fontColor=default;fillColor=default;" parent="1" vertex="1">
                    <mxGeometry x="-390" y="640" width="50" height="50" as="geometry"/>
                </mxCell>
                <mxCell id="tVOATgD5obAlSXqJcIF7-6" value="" style="edgeStyle=none;html=1;exitX=1;exitY=0.5;exitDx=0;exitDy=0;fontColor=#000000;endArrow=none;endFill=0;" parent="1" source="v6dHI_zhfIR5_jQdszG_-1" target="-BGNW_MXPj9s_1m_1hDd-1" edge="1">
                    <mxGeometry relative="1" as="geometry">
                        <mxPoint x="20" y="560" as="targetPoint"/>
                        <mxPoint x="-320" y="560" as="sourcePoint"/>
                    </mxGeometry>
                </mxCell>
                <mxCell id="-BGNW_MXPj9s_1m_1hDd-1" value="(N:1)" style="text;html=1;align=center;verticalAlign=middle;whiteSpace=wrap;rounded=0;fontFamily=Helvetica;fontSize=11;" parent="1" vertex="1">
                    <mxGeometry x="-320" y="545" width="40" height="30" as="geometry"/>
                </mxCell>
                <mxCell id="tVOATgD5obAlSXqJcIF7-8" value="" style="edgeStyle=none;html=1;exitX=1;exitY=0.5;exitDx=0;exitDy=0;fontColor=#000000;endArrow=none;endFill=0;" parent="1" source="-BGNW_MXPj9s_1m_1hDd-1" target="tVOATgD5obAlSXqJcIF7-7" edge="1">
                    <mxGeometry relative="1" as="geometry">
                        <mxPoint x="20" y="560" as="targetPoint"/>
                        <mxPoint x="-280" y="560" as="sourcePoint"/>
                    </mxGeometry>
                </mxCell>
                <mxCell id="tVOATgD5obAlSXqJcIF7-7" value="(N:1)" style="text;html=1;align=center;verticalAlign=middle;whiteSpace=wrap;rounded=0;fontFamily=Helvetica;fontSize=12;fontColor=default;" parent="1" vertex="1">
                    <mxGeometry x="-10" y="545" width="30" height="30" as="geometry"/>
                </mxCell>
                <mxCell id="tVOATgD5obAlSXqJcIF7-10" value="ID" style="ellipse;whiteSpace=wrap;html=1;aspect=fixed;rounded=0;strokeColor=default;align=center;verticalAlign=middle;fontFamily=Helvetica;fontSize=12;fontColor=default;fillColor=default;" parent="1" vertex="1">
                    <mxGeometry x="-70" y="640" width="60" height="60" as="geometry"/>
                </mxCell>
                <mxCell id="tVOATgD5obAlSXqJcIF7-12" value="Data" style="ellipse;whiteSpace=wrap;html=1;aspect=fixed;rounded=0;strokeColor=default;align=center;verticalAlign=middle;fontFamily=Helvetica;fontSize=12;fontColor=default;fillColor=default;" parent="1" vertex="1">
                    <mxGeometry x="50" y="665" width="70" height="70" as="geometry"/>
                </mxCell>
                <mxCell id="tVOATgD5obAlSXqJcIF7-14" value="Diagnostico" style="ellipse;whiteSpace=wrap;html=1;aspect=fixed;rounded=0;strokeColor=default;align=center;verticalAlign=middle;fontFamily=Helvetica;fontSize=12;fontColor=default;fillColor=default;" parent="1" vertex="1">
                    <mxGeometry x="170" y="630" width="80" height="80" as="geometry"/>
                </mxCell>
                <mxCell id="tVOATgD5obAlSXqJcIF7-16" value="Receita" style="ellipse;whiteSpace=wrap;html=1;aspect=fixed;rounded=0;strokeColor=default;align=center;verticalAlign=middle;fontFamily=Helvetica;fontSize=12;fontColor=default;fillColor=default;" parent="1" vertex="1">
                    <mxGeometry x="170" y="430" width="50" height="50" as="geometry"/>
                </mxCell>
                <mxCell id="tVOATgD5obAlSXqJcIF7-18" value="Cobrança" style="ellipse;whiteSpace=wrap;html=1;aspect=fixed;rounded=0;strokeColor=default;align=center;verticalAlign=middle;fontFamily=Helvetica;fontSize=12;fontColor=default;fillColor=default;" parent="1" vertex="1">
                    <mxGeometry x="-50" y="410" width="70" height="70" as="geometry"/>
                </mxCell>
                <mxCell id="tVOATgD5obAlSXqJcIF7-19" value="" style="edgeStyle=none;html=1;exitX=1;exitY=0.5;exitDx=0;exitDy=0;fontColor=#000000;endArrow=none;endFill=0;startArrow=none;" parent="1" source="nPT687pGPDoJ6YuOVTEo-3" target="-BGNW_MXPj9s_1m_1hDd-2" edge="1">
                    <mxGeometry relative="1" as="geometry">
                        <mxPoint x="665" y="560" as="targetPoint"/>
                        <mxPoint x="177" y="560" as="sourcePoint"/>
                    </mxGeometry>
                </mxCell>
                <mxCell id="-BGNW_MXPj9s_1m_1hDd-2" value="(1:1)" style="text;html=1;align=center;verticalAlign=middle;whiteSpace=wrap;rounded=0;fontFamily=Helvetica;fontSize=11;" parent="1" vertex="1">
                    <mxGeometry x="177" y="545" width="30" height="30" as="geometry"/>
                </mxCell>
                <mxCell id="tVOATgD5obAlSXqJcIF7-21" value="ID" style="ellipse;whiteSpace=wrap;html=1;aspect=fixed;rounded=0;strokeColor=default;align=center;verticalAlign=middle;fontFamily=Helvetica;fontSize=12;fontColor=default;fillColor=default;" parent="1" vertex="1">
                    <mxGeometry x="650" y="390" width="50" height="50" as="geometry"/>
                </mxCell>
                <mxCell id="tVOATgD5obAlSXqJcIF7-23" value="Nome" style="ellipse;whiteSpace=wrap;html=1;aspect=fixed;rounded=0;strokeColor=default;align=center;verticalAlign=middle;fontFamily=Helvetica;fontSize=12;fontColor=default;fillColor=default;" parent="1" vertex="1">
                    <mxGeometry x="620" y="650" width="50" height="50" as="geometry"/>
                </mxCell>
                <mxCell id="tVOATgD5obAlSXqJcIF7-25" value="CRM" style="ellipse;whiteSpace=wrap;html=1;aspect=fixed;rounded=0;strokeColor=default;align=center;verticalAlign=middle;fontFamily=Helvetica;fontSize=12;fontColor=default;fillColor=default;" parent="1" vertex="1">
                    <mxGeometry x="730" y="670" width="50" height="50" as="geometry"/>
                </mxCell>
                <mxCell id="tVOATgD5obAlSXqJcIF7-27" value="Telefone" style="ellipse;whiteSpace=wrap;html=1;aspect=fixed;rounded=0;strokeColor=default;align=center;verticalAlign=middle;fontFamily=Helvetica;fontSize=12;fontColor=default;fillColor=default;" parent="1" vertex="1">
                    <mxGeometry x="740" y="330" width="60" height="60" as="geometry"/>
                </mxCell>
                <mxCell id="tVOATgD5obAlSXqJcIF7-29" value="Email" style="ellipse;whiteSpace=wrap;html=1;aspect=fixed;rounded=0;strokeColor=default;align=center;verticalAlign=middle;fontFamily=Helvetica;fontSize=12;fontColor=default;fillColor=default;" parent="1" vertex="1">
                    <mxGeometry x="810" y="620" width="50" height="50" as="geometry"/>
                </mxCell>
                <mxCell id="tVOATgD5obAlSXqJcIF7-30" value="" style="edgeStyle=none;html=1;exitX=1;exitY=0.5;exitDx=0;exitDy=0;fontColor=#000000;endArrow=none;endFill=0;startArrow=none;" parent="1" source="-BGNW_MXPj9s_1m_1hDd-2" target="tVOATgD5obAlSXqJcIF7-31" edge="1">
                    <mxGeometry relative="1" as="geometry">
                        <mxPoint x="665" y="560" as="targetPoint"/>
                        <mxPoint x="207" y="560" as="sourcePoint"/>
                    </mxGeometry>
                </mxCell>
                <mxCell id="tVOATgD5obAlSXqJcIF7-31" value="(1:1)" style="text;html=1;align=center;verticalAlign=middle;whiteSpace=wrap;rounded=0;fontFamily=Helvetica;fontSize=12;fontColor=default;" parent="1" vertex="1">
                    <mxGeometry x="620" y="545" width="45" height="30" as="geometry"/>
                </mxCell>
                <mxCell id="tVOATgD5obAlSXqJcIF7-33" value="" style="edgeStyle=none;html=1;exitX=1;exitY=0.5;exitDx=0;exitDy=0;fontColor=#000000;endArrow=none;endFill=0;" parent="1" source="nPT687pGPDoJ6YuOVTEo-2" target="tVOATgD5obAlSXqJcIF7-32" edge="1">
                    <mxGeometry relative="1" as="geometry">
                        <mxPoint x="1250" y="560" as="targetPoint"/>
                        <mxPoint x="785" y="560" as="sourcePoint"/>
                    </mxGeometry>
                </mxCell>
                <mxCell id="tVOATgD5obAlSXqJcIF7-32" value="(N:N)" style="text;html=1;align=center;verticalAlign=middle;whiteSpace=wrap;rounded=0;fontFamily=Helvetica;fontSize=12;fontColor=default;" parent="1" vertex="1">
                    <mxGeometry x="785" y="545" width="35" height="30" as="geometry"/>
                </mxCell>
                <mxCell id="tVOATgD5obAlSXqJcIF7-35" value="ID" style="ellipse;whiteSpace=wrap;html=1;aspect=fixed;rounded=0;strokeColor=default;align=center;verticalAlign=middle;fontFamily=Helvetica;fontSize=12;fontColor=default;fillColor=default;" parent="1" vertex="1">
                    <mxGeometry x="1250" y="400" width="40" height="40" as="geometry"/>
                </mxCell>
                <mxCell id="tVOATgD5obAlSXqJcIF7-39" value="Nome" style="ellipse;whiteSpace=wrap;html=1;aspect=fixed;rounded=0;strokeColor=default;align=center;verticalAlign=middle;fontFamily=Helvetica;fontSize=12;fontColor=default;fillColor=default;" parent="1" vertex="1">
                    <mxGeometry x="1330" y="660" width="50" height="50" as="geometry"/>
                </mxCell>
                <mxCell id="tVOATgD5obAlSXqJcIF7-40" value="" style="edgeStyle=none;html=1;exitX=1;exitY=0.5;exitDx=0;exitDy=0;fontColor=#000000;endArrow=none;endFill=0;" parent="1" source="tVOATgD5obAlSXqJcIF7-32" target="tVOATgD5obAlSXqJcIF7-41" edge="1">
                    <mxGeometry relative="1" as="geometry">
                        <mxPoint x="1250" y="560" as="targetPoint"/>
                        <mxPoint x="820" y="560" as="sourcePoint"/>
                    </mxGeometry>
                </mxCell>
                <mxCell id="tVOATgD5obAlSXqJcIF7-41" value="(N:N)" style="text;html=1;align=center;verticalAlign=middle;whiteSpace=wrap;rounded=0;fontFamily=Helvetica;fontSize=12;fontColor=default;" parent="1" vertex="1">
                    <mxGeometry x="1210" y="545" width="40" height="30" as="geometry"/>
                </mxCell>
                <mxCell id="gzAERPlZR-tmKWVRlDNY-2" value="Descrição" style="ellipse;whiteSpace=wrap;html=1;aspect=fixed;" vertex="1" parent="1">
                    <mxGeometry x="1370" y="310" width="60" height="60" as="geometry"/>
                </mxCell>
            </root>
        </mxGraphModel>
    </diagram>
</mxfile>